REM MD5 716409299c33a73ff72dd5b8b9edfa59
FILE "Tank Racer (Europe) (Demo).bin" BINARY
  TRACK 01 MODE2/2352
    INDEX 01 00:00:00
  TRACK 02 AUDIO
    INDEX 00 09:17:49
    INDEX 01 09:19:49
  TRACK 03 AUDIO
    INDEX 00 11:40:40
    INDEX 01 11:42:40
REM LEADOUT 14:03:31
